<svg width="42" height="42" viewBox="0 0 42 42" fill="none" xmlns="http://www.w3.org/2000/svg">
<g clip-path="url(#clip0_2_215)">
<path d="M23.1588 0C25.5212 0.00629968 26.7202 0.018899 27.7555 0.0482976L28.1629 0.0629968C28.6332 0.0797959 29.0973 0.100795 29.658 0.125994C31.8923 0.230988 33.4168 0.583771 34.7544 1.10244C36.1404 1.63582 37.3079 2.35818 38.4755 3.52362C39.5437 4.57301 40.3699 5.8429 40.8966 7.24463C41.4153 8.58227 41.7681 10.1068 41.8731 12.3432C41.8983 12.9017 41.9193 13.3658 41.9361 13.8383L41.9487 14.2457C41.9802 15.2788 41.9928 16.4779 41.997 18.8402L41.9991 20.4068V23.1576C42.0042 24.6893 41.9881 26.221 41.9508 27.7522L41.9382 28.1596C41.9214 28.6321 41.9004 29.0961 41.8752 29.6547C41.7702 31.8911 41.4132 33.4135 40.8966 34.7532C40.3699 36.155 39.5437 37.4249 38.4755 38.4743C37.4261 39.5425 36.1562 40.3688 34.7544 40.8954C33.4168 41.4141 31.8923 41.7669 29.658 41.8719L28.1629 41.9349L27.7555 41.9475C26.7202 41.9769 25.5212 41.9916 23.1588 41.9958L21.5923 41.9979H18.8435C17.3112 42.0033 15.7788 41.9872 14.2469 41.9496L13.8395 41.937C13.341 41.9181 12.8426 41.8964 12.3444 41.8719C10.1101 41.7669 8.58556 41.4141 7.24583 40.8954C5.84484 40.3685 4.57569 39.5422 3.52692 38.4743C2.45796 37.4251 1.63094 36.1552 1.10364 34.7532C0.584965 33.4156 0.232183 31.8911 0.127188 29.6547L0.0641912 28.1596L0.053692 27.7522C0.0149826 26.221 -0.00251839 24.6893 0.00119441 23.1576V18.8402C-0.00461787 17.3086 0.010783 15.7769 0.0473922 14.2457L0.0620914 13.8383C0.0788906 13.3658 0.0998895 12.9017 0.125088 12.3432C0.230083 10.1068 0.582865 8.58437 1.10154 7.24463C1.63007 5.84232 2.45854 4.57239 3.52902 3.52362C4.57719 2.45593 5.84559 1.62967 7.24583 1.10244C8.58556 0.583771 10.108 0.230988 12.3444 0.125994C12.9029 0.100795 13.3691 0.0797959 13.8395 0.0629968L14.2469 0.0503973C15.7781 0.013088 17.3098 -0.00301271 18.8414 0.00209974L23.1588 0ZM21.0001 10.4995C18.2155 10.4995 15.5449 11.6057 13.5759 13.5747C11.6069 15.5437 10.5007 18.2143 10.5007 20.9989C10.5007 23.7836 11.6069 26.4542 13.5759 28.4232C15.5449 30.3922 18.2155 31.4984 21.0001 31.4984C23.7848 31.4984 26.4553 30.3922 28.4244 28.4232C30.3934 26.4542 31.4996 23.7836 31.4996 20.9989C31.4996 18.2143 30.3934 15.5437 28.4244 13.5747C26.4553 11.6057 23.7848 10.4995 21.0001 10.4995ZM21.0001 14.6993C21.8274 14.6991 22.6466 14.8619 23.411 15.1784C24.1754 15.4949 24.8699 15.9588 25.455 16.5437C26.0401 17.1285 26.5042 17.8229 26.8209 18.5872C27.1376 19.3514 27.3007 20.1706 27.3009 20.9979C27.301 21.8252 27.1382 22.6444 26.8217 23.4088C26.5053 24.1731 26.0414 24.8677 25.4565 25.4527C24.8716 26.0378 24.1772 26.502 23.4129 26.8187C22.6487 27.1354 21.8295 27.2985 21.0022 27.2986C19.3315 27.2986 17.7291 26.6349 16.5477 25.4535C15.3663 24.2721 14.7026 22.6697 14.7026 20.9989C14.7026 19.3282 15.3663 17.7258 16.5477 16.5444C17.7291 15.363 19.3315 14.6993 21.0022 14.6993M32.0267 7.34963C31.3305 7.34963 30.6629 7.62618 30.1706 8.11844C29.6784 8.61069 29.4018 9.27834 29.4018 9.9745C29.4018 10.6707 29.6784 11.3383 30.1706 11.8306C30.6629 12.3228 31.3305 12.5994 32.0267 12.5994C32.7228 12.5994 33.3905 12.3228 33.8827 11.8306C34.375 11.3383 34.6515 10.6707 34.6515 9.9745C34.6515 9.27834 34.375 8.61069 33.8827 8.11844C33.3905 7.62618 32.7228 7.34963 32.0267 7.34963Z" fill="url(#paint0_linear_2_215)"/>
</g>
<defs>
<linearGradient id="paint0_linear_2_215" x1="38.5" y1="-0.00110134" x2="3.5" y2="42" gradientUnits="userSpaceOnUse">
<stop stop-color="#FFDD00"/>
<stop offset="0.47" stop-color="#0033A0"/>
<stop offset="1" stop-color="#06762C"/>
</linearGradient>
<clipPath id="clip0_2_215">
<rect width="42" height="41.9989" fill="white"/>
</clipPath>
</defs>
</svg>
