<svg width="20" height="32" viewBox="0 0 20 32" fill="none" xmlns="http://www.w3.org/2000/svg">
<path d="M10.0002 13.956C9.72255 13.956 9.49854 13.731 9.49854 13.4543V11.8766C9.49854 11.599 9.72351 11.375 10.0002 11.375C10.2778 11.375 10.5018 11.6 10.5018 11.8766V13.4543C10.5018 13.7319 10.2768 13.956 10.0002 13.956Z" fill="#BA6750"/>
<path d="M10 16.8987C8.98239 16.8987 8.1543 16.0707 8.1543 15.053C8.1543 14.0354 8.98239 13.2073 10 13.2073C11.0177 13.2073 11.8458 14.0354 11.8458 15.053C11.8458 16.0707 11.0177 16.8987 10 16.8987ZM10 13.7194C9.2648 13.7194 8.66647 14.3178 8.66647 15.053C8.66647 15.7882 9.2648 16.3866 10 16.3866C10.7353 16.3866 11.3336 15.7882 11.3336 15.053C11.3336 14.3178 10.7353 13.7194 10 13.7194Z" fill="#BA6750"/>
<path d="M18.101 23.0602C18.101 27.5347 14.4737 31.1621 10.0001 31.1621C8.41476 31.1621 6.93473 30.7064 5.68541 29.9185C3.41079 28.4844 1.89917 25.9484 1.89917 23.0602C1.89917 18.5866 5.5265 14.9592 10.0001 14.9592C11.954 14.9592 13.7481 15.6523 15.1477 16.805C16.9513 18.2907 18.101 20.5414 18.101 23.0602Z" fill="#DB886E"/>
<path d="M18.1009 23.0601C18.1009 27.5347 14.4736 31.162 9.99999 31.162C8.41465 31.162 6.93462 30.7063 5.6853 29.9185C15.4242 28.6404 15.1916 17.8274 15.1476 16.8049C16.9512 18.2907 18.1009 20.5414 18.1009 23.0601Z" fill="#EFA48F"/>
<path d="M14.4697 27.5302C16.9383 25.0616 16.9383 21.0592 14.4697 18.5906C12.0011 16.122 7.99871 16.122 5.53011 18.5906C3.0615 21.0592 3.0615 25.0616 5.53011 27.5302C7.99871 29.9988 12.0011 29.9988 14.4697 27.5302Z" fill="#C67560"/>
<path d="M8.62154 24.6542C8.86758 24.7815 9.43432 25.0189 10.0001 25.0189C10.721 25.0189 11.0867 24.6723 11.0867 24.2243C11.0867 23.6403 10.5027 23.3752 9.89097 23.3752H9.32519V22.3805H9.86416C10.3294 22.3709 10.923 22.1976 10.923 21.696C10.923 21.3399 10.631 21.0757 10.047 21.0757C9.56356 21.0757 9.05234 21.2853 8.80535 21.4318L8.52198 20.4275C8.87811 20.1997 9.59036 19.9805 10.3572 19.9805C11.6256 19.9805 12.3293 20.6468 12.3293 21.4595C12.3293 22.0895 11.9732 22.5825 11.2427 22.8381V22.8563C11.955 22.9846 12.5294 23.5226 12.5294 24.299C12.5294 25.3492 11.6075 26.116 10.1016 26.116C9.33476 26.116 8.68664 25.915 8.34009 25.6957L8.62346 24.6551L8.62154 24.6542Z" fill="#BA6750"/>
<path d="M8.31417 24.4148C8.5602 24.5421 9.12694 24.7795 9.69272 24.7795C10.4136 24.7795 10.7793 24.433 10.7793 23.9849C10.7793 23.401 10.1953 23.1358 9.58359 23.1358H9.01781V22.1411H9.55678C10.022 22.1315 10.6156 21.9583 10.6156 21.4566C10.6156 21.1005 10.3236 20.8363 9.73963 20.8363C9.25618 20.8363 8.74497 21.0459 8.49798 21.1924L8.2146 20.1882C8.57073 19.9603 9.28298 19.7411 10.0498 19.7411C11.3183 19.7411 12.0219 20.4074 12.0219 21.2202C12.0219 21.8501 11.6658 22.3431 10.9353 22.5987V22.6169C11.6476 22.7452 12.222 23.2832 12.222 24.0596C12.222 25.1098 11.3001 25.8766 9.7942 25.8766C9.02738 25.8766 8.37927 25.6756 8.03271 25.4564L8.31608 24.4157L8.31417 24.4148Z" fill="#EFA48F"/>
<path d="M4.72986 23.9275C4.72986 25.6957 5.46796 27.2916 6.65218 28.4241C4.8658 27.3078 3.67871 25.3233 3.67871 23.0611C3.67871 19.5707 6.50858 16.7399 9.99997 16.7399C12.0515 16.7399 13.8743 17.7173 15.0298 19.2318C13.9375 18.2821 12.512 17.7077 10.9506 17.7077C7.5157 17.7077 4.73082 20.4916 4.73082 23.9275H4.72986Z" fill="#BA6750"/>
<path opacity="0.5" d="M13.3105 29.8094C13.2483 29.8094 13.188 29.7749 13.1583 29.7156C13.1162 29.6313 13.1497 29.5289 13.2339 29.4868C14.5244 28.8358 15.5794 27.8239 16.285 26.5602C16.3309 26.4779 16.4343 26.4482 16.5166 26.4942C16.599 26.5401 16.6286 26.6435 16.5827 26.7258C15.8446 28.0489 14.7398 29.1096 13.3871 29.7912C13.3622 29.8037 13.3364 29.8094 13.3105 29.8094Z" fill="white"/>
<path opacity="0.5" d="M17.0308 25.421C17.0136 25.421 16.9973 25.4181 16.98 25.4133C16.8901 25.3856 16.8403 25.2898 16.868 25.1998C17.0825 24.5096 17.1916 23.7906 17.1916 23.0612C17.1916 22.9673 17.2682 22.8907 17.362 22.8907C17.4558 22.8907 17.5324 22.9673 17.5324 23.0612C17.5324 23.8251 17.4185 24.5785 17.1935 25.3013C17.1706 25.3741 17.1035 25.421 17.0308 25.421Z" fill="white"/>
<path d="M19.4518 0L14.8987 9.24112L13.7643 11.5445L13.7633 11.5454H6.23584V11.5445L10.0001 3.90495V3.904L10.4222 3.04814L11.9233 0H19.4518Z" fill="#7480AE"/>
<path d="M13.7643 11.5445L13.7633 11.5454H6.23585V11.5445L0.54834 0H8.07583L10.0001 3.904V3.90495L13.7643 11.5445Z" fill="#94B1DD"/>
<path d="M14.8987 9.24107L13.7642 11.5444L13.7633 11.5454L10 3.90491V3.90395L10.4222 3.0481L14.8987 9.24107Z" fill="#545C77"/>
<path d="M13.5105 13.1911H6.48757C6.02518 13.1911 5.6499 12.8158 5.6499 12.3534C5.6499 11.8901 6.02518 11.5157 6.48757 11.5157H13.5105C13.9729 11.5157 14.3482 11.891 14.3482 12.3534C14.3482 12.8158 13.9729 13.1911 13.5105 13.1911Z" fill="#DB886E"/>
<path d="M8.59195 12.3103H6.72802C6.63421 12.3103 6.55762 12.2337 6.55762 12.1399C6.55762 12.0461 6.63421 11.9695 6.72802 11.9695H8.59195C8.68576 11.9695 8.76235 12.0461 8.76235 12.1399C8.76235 12.2337 8.68576 12.3103 8.59195 12.3103Z" fill="#EFA48F"/>
</svg>
