<svg width="20" height="32" viewBox="0 0 20 32" fill="none" xmlns="http://www.w3.org/2000/svg">
<path d="M10.5144 12.1959C10.5144 11.9114 10.2838 11.6808 9.99926 11.6808C9.71476 11.6808 9.48413 11.9114 9.48413 12.1959V13.816C9.48413 14.1005 9.71476 14.3311 9.99926 14.3311C10.2838 14.3311 10.5144 14.1005 10.5144 13.816V12.1959Z" fill="#CCB437"/>
<path d="M10.0001 17.3532C8.95509 17.3532 8.10474 16.5029 8.10474 15.4579C8.10474 14.4129 8.95509 13.5625 10.0001 13.5625C11.0451 13.5625 11.8955 14.4129 11.8955 15.4579C11.8955 16.5029 11.0451 17.3532 10.0001 17.3532ZM10.0001 14.0884C9.2451 14.0884 8.63068 14.7029 8.63068 15.4579C8.63068 16.2129 9.2451 16.8273 10.0001 16.8273C10.7551 16.8273 11.3695 16.2129 11.3695 15.4579C11.3695 14.7029 10.7551 14.0884 10.0001 14.0884Z" fill="#CCB437"/>
<path d="M18.3189 23.6802C18.3189 28.2751 14.594 31.9999 10.0001 31.9999C8.37218 31.9999 6.85235 31.532 5.56944 30.7229C3.23367 29.2503 1.6814 26.6461 1.6814 23.6802C1.6814 19.0863 5.40625 15.3615 10.0001 15.3615C12.0066 15.3615 13.8489 16.0732 15.2861 17.2568C17.1382 18.7825 18.3189 21.0937 18.3189 23.6802Z" fill="#FDE378"/>
<path d="M18.3188 23.6803C18.3188 28.2752 14.5939 32.0001 10 32.0001C8.37207 32.0001 6.85224 31.5321 5.56934 30.7231C15.5701 29.4107 15.3312 18.3069 15.286 17.257C17.1381 18.7827 18.3188 21.0939 18.3188 23.6803Z" fill="#F0D256"/>
<path d="M16.4049 24.7352C16.9879 21.1979 14.593 17.8577 11.0558 17.2747C7.5185 16.6916 4.17832 19.0865 3.59526 22.6238C3.01221 26.161 5.40708 29.5012 8.94435 30.0843C12.4816 30.6673 15.8218 28.2725 16.4049 24.7352Z" fill="#E2C139"/>
<path d="M10.1495 21.8861H10.1308L8.96883 22.4395L8.73486 21.3709L10.3471 20.6208H11.5278V26.7139H10.1495V21.8861Z" fill="#CCB437"/>
<path d="M4.5882 24.571C4.5882 26.3867 5.34615 28.0255 6.56221 29.1884C4.7278 28.0422 3.50879 26.0043 3.50879 23.6813C3.50879 20.097 6.41475 17.1901 10 17.1901C12.1067 17.1901 13.9785 18.1938 15.1651 19.749C14.0434 18.7738 12.5796 18.1839 10.9762 18.1839C7.44894 18.1839 4.58918 21.0427 4.58918 24.571H4.5882Z" fill="#CCB437"/>
<path opacity="0.5" d="M13.3996 30.6109C13.3357 30.6109 13.2737 30.5755 13.2433 30.5146C13.2 30.4281 13.2344 30.3229 13.3209 30.2796C14.6461 29.6111 15.7295 28.572 16.454 27.2744C16.5012 27.1898 16.6073 27.1594 16.6919 27.2065C16.7764 27.2537 16.8069 27.3599 16.7597 27.4444C16.0018 28.8031 14.8673 29.8923 13.4782 30.5922C13.4527 30.605 13.4261 30.6109 13.3996 30.6109Z" fill="white"/>
<path opacity="0.5" d="M17.2197 26.1045C17.203 26.1045 17.1853 26.1015 17.1676 26.0966C17.0752 26.0681 17.0241 25.9698 17.0526 25.8774C17.2728 25.1686 17.3848 24.4303 17.3848 23.6812C17.3848 23.5849 17.4635 23.5062 17.5598 23.5062C17.6562 23.5062 17.7348 23.5849 17.7348 23.6812C17.7348 24.4657 17.6178 25.2394 17.3868 25.9816C17.3632 26.0563 17.2944 26.1045 17.2197 26.1045Z" fill="white"/>
<path d="M9.83407 21.6403H9.81539L8.6534 22.1938L8.41943 21.1252L10.0317 20.3751H11.2123V26.4682H9.83407V21.6403Z" fill="#8E7B1C"/>
<path d="M19.7061 0L15.0306 9.48959L13.8656 11.8549L13.8647 11.8558H6.13477V11.8549L10.0002 4.00995V4.00897L10.4337 3.1301L11.9752 0H19.7061Z" fill="#065A96"/>
<path d="M13.8655 11.8549L13.8645 11.8558H6.13462V11.8549L0.294189 0H8.02408L10.0001 4.00897V4.00995L13.8655 11.8549Z" fill="#138ACB"/>
<path d="M15.0306 9.48962L13.8657 11.8549L13.8647 11.8559L10.0002 4.00998V4.00899L10.4338 3.13013L15.0306 9.48962Z" fill="#5CD2E2"/>
<path d="M13.6049 13.5458H6.39412C5.9193 13.5458 5.53394 13.1604 5.53394 12.6856C5.53394 12.2098 5.9193 11.8254 6.39412 11.8254H13.6059C14.0808 11.8254 14.4661 12.2108 14.4661 12.6856C14.4661 13.1604 14.0808 13.5458 13.6059 13.5458H13.6049Z" fill="#E9D368"/>
<path opacity="0.5" d="M8.55411 12.6414H6.64007C6.54373 12.6414 6.46509 12.5627 6.46509 12.4664C6.46509 12.37 6.54373 12.2914 6.64007 12.2914H8.55411C8.65046 12.2914 8.7291 12.37 8.7291 12.4664C8.7291 12.5627 8.65046 12.6414 8.55411 12.6414Z" fill="#E9D368"/>
</svg>
