<svg width="25" height="40" viewBox="0 0 25 40" fill="none" xmlns="http://www.w3.org/2000/svg">
  <path d="M12.6092 17.4448C12.2622 17.4448 11.9822 17.1636 11.9822 16.8178V14.8457C11.9822 14.4986 12.2634 14.2186 12.6092 14.2186C12.9563 14.2186 13.2363 14.4998 13.2363 14.8457V16.8178C13.2363 17.1648 12.9551 17.4448 12.6092 17.4448Z" fill="#618780"/>
  <path d="M12.6094 21.1234C11.3374 21.1234 10.3022 20.0883 10.3022 18.8162C10.3022 17.5441 11.3374 16.509 12.6094 16.509C13.8815 16.509 14.9166 17.5441 14.9166 18.8162C14.9166 20.0883 13.8815 21.1234 12.6094 21.1234ZM12.6094 17.1492C11.6904 17.1492 10.9425 17.8972 10.9425 18.8162C10.9425 19.7352 11.6904 20.4832 12.6094 20.4832C13.5285 20.4832 14.2764 19.7352 14.2764 18.8162C14.2764 17.8972 13.5285 17.1492 12.6094 17.1492Z" fill="#618780"/>
  <path d="M22.7352 28.8253C22.7352 34.4185 18.2011 38.9526 12.6091 38.9526C10.6274 38.9526 8.77736 38.383 7.21571 37.3982C4.37244 35.6056 2.48291 32.4356 2.48291 28.8253C2.48291 23.2333 7.01707 18.6991 12.6091 18.6991C15.0515 18.6991 17.294 19.5655 19.0435 21.0063C21.298 22.8635 22.7352 25.6768 22.7352 28.8253Z" fill="#97B1CC"/>
  <path d="M22.7356 28.8252C22.7356 34.4184 18.2014 38.9526 12.6094 38.9526C10.6278 38.9526 8.77771 38.383 7.21606 37.3981C19.3897 35.8006 19.0989 22.2843 19.0439 21.0062C21.2984 22.8634 22.7356 25.6768 22.7356 28.8252Z" fill="#BDCDE5"/>
  <path d="M18.1961 34.4127C21.2818 31.3269 21.2818 26.3239 18.1961 23.2382C15.1103 20.1524 10.1073 20.1524 7.02158 23.2382C3.93582 26.3239 3.93582 31.3269 7.02158 34.4127C10.1073 37.4984 15.1103 37.4984 18.1961 34.4127Z" fill="#7F9EBA"/>
  <g style="mix-blend-mode:multiply" opacity="0.8">
    <path d="M10.5774 32.5167V31.4672L11.5359 30.5996C13.1562 29.1505 13.9436 28.3176 13.9663 27.45C13.9663 26.8457 13.6014 26.3658 12.7457 26.3658C12.1067 26.3658 11.5479 26.6853 11.1602 26.9821L10.6695 25.7388C11.2284 25.3164 12.096 24.9741 13.1 24.9741C14.7777 24.9741 15.7015 25.9554 15.7015 27.3016C15.7015 28.545 14.8004 29.5382 13.727 30.4967L13.0425 31.0675V31.0903H15.8379V32.5167H10.5774Z" fill="#BDCDE5"/>
  </g>
  <g style="mix-blend-mode:multiply" opacity="0.8">
    <path d="M6.0217 29.9094C6.0217 32.1196 6.94433 34.1144 8.4246 35.5301C6.19163 34.1348 4.70776 31.6541 4.70776 28.8264C4.70776 24.4633 8.2451 20.9248 12.6093 20.9248C15.1738 20.9248 17.4522 22.1466 18.8966 24.0397C17.5312 22.8526 15.7494 22.1346 13.7976 22.1346C9.50399 22.1346 6.0229 25.6145 6.0229 29.9094H6.0217Z" fill="#BDCDE5"/>
  </g>
  <path opacity="0.5" d="M16.7472 37.2617C16.6694 37.2617 16.594 37.2186 16.5569 37.1444C16.5042 37.0391 16.5461 36.911 16.6514 36.8584C18.2645 36.0447 19.5833 34.7798 20.4652 33.2002C20.5226 33.0973 20.6519 33.0602 20.7548 33.1176C20.8577 33.1751 20.8948 33.3043 20.8374 33.4072C19.9147 35.061 18.5338 36.3869 16.8429 37.2389C16.8118 37.2545 16.7795 37.2617 16.7472 37.2617Z" fill="white"/>
  <path opacity="0.5" d="M21.3976 31.7761C21.3761 31.7761 21.3557 31.7725 21.3342 31.7665C21.2217 31.7318 21.1595 31.6121 21.1942 31.4996C21.4622 30.6368 21.5986 29.7381 21.5986 28.8263C21.5986 28.709 21.6944 28.6133 21.8117 28.6133C21.9289 28.6133 22.0247 28.709 22.0247 28.8263C22.0247 29.7812 21.8823 30.723 21.601 31.6265C21.5723 31.7174 21.4886 31.7761 21.3976 31.7761Z" fill="white"/>
  <path d="M10.1934 32.2188V31.1694L11.1519 30.3018C12.7722 28.8526 13.5596 28.0197 13.5823 27.1522C13.5823 26.5478 13.2173 26.068 12.3617 26.068C11.7227 26.068 11.1639 26.3875 10.7761 26.6843L10.2855 25.4409C10.8443 25.0185 11.7119 24.6763 12.7159 24.6763C14.3937 24.6763 15.3175 25.6575 15.3175 27.0038C15.3175 28.2471 14.4164 29.2403 13.343 30.1989L12.6585 30.7697V30.7924H15.4539V32.2188H10.1934Z" fill="#BDCDE5"/>
  <path d="M24.4237 -0.00012207L18.7324 11.5513L17.3144 14.4304L17.3132 14.4316H7.90381V14.4304L12.6091 4.88107V4.87987L13.1368 3.81005L15.0132 -0.00012207H24.4237Z" fill="#2169AA"/>
  <path d="M17.3144 14.4304L17.3132 14.4316H7.90381V14.4304L0.794434 -0.00012207H10.2038L12.6091 4.87987V4.88107L17.3144 14.4304Z" fill="#51E5FA"/>
  <path d="M18.7322 11.5513L17.3142 14.4304L17.313 14.4316L12.6089 4.88107V4.87988L13.1366 3.81006L18.7322 11.5513Z" fill="#0B417C"/>
  <path d="M16.9972 16.4886H8.21847C7.64048 16.4886 7.17139 16.0195 7.17139 15.4415C7.17139 14.8623 7.64048 14.3944 8.21847 14.3944H16.9972C17.5752 14.3944 18.0443 14.8635 18.0443 15.4415C18.0443 16.0195 17.5752 16.4886 16.9972 16.4886Z" fill="#7F9EBA"/>
  <path opacity="0.5" d="M10.8491 15.3877H8.51916C8.40189 15.3877 8.30615 15.2919 8.30615 15.1747C8.30615 15.0574 8.40189 14.9617 8.51916 14.9617H10.8491C10.9663 14.9617 11.0621 15.0574 11.0621 15.1747C11.0621 15.2919 10.9663 15.3877 10.8491 15.3877Z" fill="white"/>
</svg>
